<svg class="_8qsphw1- _2q3yEOJT" alt="" aria-label="" xmlns="http://www.w3.org/2000/svg" version="1.1" viewBox="0 0 1024 1024" width="1em" height="1em" role="img" fill="#FFF"><path d="M701.6 592.6c83.8 0 151.7 67.9 151.7 151.7l0 100.5c0 28.3-22.9 51.2-51.2 51.2l-580.2 0c-28.3 0-51.2-22.9-51.2-51.2l0-100.5c0-83.8 67.9-151.7 151.7-151.7l379.2 0z m0 76.8l-379.2 0c-41.4 0-74.9 33.5-74.9 74.9l0 74.9 529 0 0-74.9c0-39.3-30.3-71.5-68.7-74.7l-6.2-0.2z m-189.6-494.5c94.5 0 171.1 76.6 171.1 171.2 0 94.5-76.6 171.1-171.1 171.1-94.5 0-171.1-76.6-171.1-171.1 0-94.5 76.6-171.1 171.1-171.2z m0 76.8c-52.1 0-94.3 42.2-94.3 94.4 0 52.1 42.2 94.3 94.3 94.3 52.1 0 94.3-42.2 94.3-94.3 0-52.1-42.2-94.3-94.3-94.4z"></path></svg>