<?xml version="1.0" standalone="no"?>
<!DOCTYPE svg PUBLIC "-//W3C//DTD SVG 20010904//EN"
 "http://www.w3.org/TR/2001/REC-SVG-20010904/DTD/svg10.dtd">
<svg version="1.0" xmlns="http://www.w3.org/2000/svg"
 width="1500.000000pt" height="1500.000000pt" viewBox="0 0 1500.000000 1500.000000"
 preserveAspectRatio="xMidYMid meet">
<rect x="0" y="0" width="100%" height="100%" fill="#FFA500"></rect>


<g transform="translate(0.000000,1500.000000) scale(0.100000,-0.100000)"
fill="#4CAF50" stroke="none">
<path d="M0 7500 l0 -7500 7500 0 7500 0 0 7500 0 7500 -7500 0 -7500 0 0
-7500z m6915 4533 l60 -543 2870 -2 2870 -3 48 -24 c60 -30 103 -82 123 -147
l15 -51 -396 -1643 c-217 -903 -395 -1650 -395 -1660 0 -40 -35 -112 -71 -149
-77 -76 168 -68 -2826 -91 l-2693 -21 -47 21 c-63 28 -91 55 -119 115 l-24 50
0 1692 0 1693 -35 304 c-19 168 -35 312 -35 320 0 13 -57 15 -427 18 l-428 3
-66 33 c-77 37 -121 83 -157 161 -83 181 7 389 197 457 28 10 187 13 756 11
l720 -2 60 -542z m-1098 -848 c57 -17 118 -70 140 -122 43 -104 22 -242 -48
-312 -75 -75 -17 -72 -1175 -69 l-1029 3 -40 22 c-86 46 -124 119 -125 233 0
125 54 209 157 246 59 21 2049 20 2120 -1z m19 -1592 c48 -26 100 -82 122
-132 23 -54 20 -157 -6 -207 -29 -56 -77 -103 -132 -128 l-45 -21 -1990 -3
c-1275 -2 -2013 1 -2054 7 -87 14 -147 52 -188 119 -89 149 -18 332 147 383
14 4 943 7 2065 6 l2040 -2 41 -22z m4 -1647 c83 -44 127 -110 136 -205 12
-115 -34 -218 -118 -263 l-43 -23 -1039 -3 c-1150 -3 -1100 -5 -1164 61 -50
52 -72 111 -72 198 0 61 5 85 26 127 29 59 89 106 151 121 22 5 476 9 1063 8
979 -2 1027 -3 1060 -21z m1510 -496 c370 -110 620 -441 620 -822 0 -234 -71
-420 -224 -585 -121 -130 -277 -222 -441 -260 -113 -26 -301 -23 -410 6 -219
58 -422 217 -538 421 -40 69 -85 215 -98 317 -22 172 17 361 107 520 118 209
339 370 574 419 99 20 314 12 410 -16z m2378 14 c212 -43 409 -172 529 -346
65 -94 85 -134 117 -237 151 -479 -137 -981 -629 -1098 -94 -23 -286 -23 -380
-1 -140 34 -267 99 -370 189 -332 291 -397 766 -154 1130 124 185 318 316 534
362 94 20 258 21 353 1z m-158 -2259 l0 -355 -54 0 c-50 0 -54 2 -66 30 -14
33 -25 38 -34 15 -8 -22 -84 -55 -129 -55 -53 0 -99 22 -134 65 -41 50 -58
113 -57 211 3 176 99 276 239 250 19 -4 50 -20 68 -35 l32 -29 -4 129 -3 129
71 0 71 0 0 -355z m-2350 314 c96 -22 143 -93 120 -181 -8 -31 -27 -58 -65
-94 l-54 -51 59 -58 c33 -33 62 -56 65 -53 4 3 17 32 30 65 l24 58 72 3 71 3
-6 -28 c-8 -32 -56 -134 -83 -177 l-18 -28 70 -64 69 -64 -90 0 c-83 0 -92 2
-113 24 l-23 24 -55 -25 c-181 -83 -383 -2 -383 154 0 70 18 111 69 155 22 19
41 38 41 42 0 4 -9 19 -21 35 -72 98 -29 225 88 257 59 16 76 16 133 3z m1140
-15 c28 -8 50 -18 50 -22 0 -3 -10 -30 -21 -58 l-22 -52 -38 13 c-111 39 -191
27 -256 -40 -53 -56 -71 -127 -54 -224 11 -68 29 -101 73 -134 28 -21 111 -34
152 -23 25 6 26 10 26 76 l0 70 -60 0 -60 0 0 60 0 60 130 0 130 0 -2 -177 -3
-177 -45 -14 c-26 -8 -93 -15 -160 -16 -109 -1 -118 1 -175 29 -115 57 -160
155 -153 329 5 112 23 162 82 224 85 92 250 122 406 76z m2590 -89 l0 -55 70
0 70 0 0 -55 0 -55 -70 0 -70 0 0 -135 c0 -133 0 -135 26 -151 21 -14 33 -15
70 -7 52 12 57 7 52 -53 -3 -36 -7 -40 -43 -52 -51 -17 -153 -10 -188 12 -48
32 -57 70 -57 235 l0 151 -35 0 c-33 0 -35 2 -35 33 0 28 6 37 39 55 29 16 43
33 52 60 21 67 26 72 74 72 l45 0 0 -55z m-6065 -56 c87 -24 145 -119 145
-238 l0 -51 -165 0 c-107 0 -165 -4 -165 -10 0 -24 30 -79 51 -94 30 -21 128
-21 195 -1 27 8 50 15 52 15 1 0 2 -24 2 -54 l0 -54 -65 -17 c-131 -36 -267
-3 -326 78 -39 54 -52 108 -47 197 7 116 58 193 150 227 42 15 122 16 173 2z
m596 -15 c19 -11 44 -35 56 -54 22 -31 23 -42 23 -236 l0 -204 -48 0 c-46 0
-49 2 -61 35 l-13 36 -31 -31 c-38 -37 -95 -54 -160 -47 -92 8 -141 71 -134
171 3 53 7 62 39 92 42 38 82 50 191 60 75 7 77 8 77 33 0 34 -10 48 -43 60
-28 11 -111 0 -147 -19 -10 -5 -21 -10 -24 -10 -7 0 -46 76 -46 89 0 9 58 34
105 45 11 3 56 4 101 2 59 -2 90 -8 115 -22z m498 11 c73 -19 77 -25 56 -79
-10 -25 -19 -46 -20 -46 -1 0 -22 7 -46 15 -59 21 -127 22 -147 2 -14 -15 -14
-18 2 -36 10 -11 48 -32 84 -46 117 -47 152 -86 152 -168 0 -56 -32 -105 -85
-131 -55 -27 -175 -33 -248 -12 l-57 17 0 55 c0 54 1 56 23 50 156 -45 222
-42 222 10 0 27 -7 33 -92 74 -111 55 -130 71 -144 124 -37 136 112 221 300
171z m2914 -9 c20 -10 47 -33 60 -50 21 -29 22 -42 25 -238 l3 -208 -50 0
c-48 0 -50 1 -61 36 l-12 36 -32 -31 c-72 -70 -200 -68 -266 3 -19 21 -25 40
-28 90 -8 119 41 160 210 179 97 11 98 11 98 37 0 61 -78 81 -178 46 l-42 -15
-20 39 c-11 22 -20 44 -20 49 0 9 59 34 105 45 45 11 171 0 208 -18z m1194 14
l74 0 -3 -37 c-3 -34 -6 -38 -40 -46 -34 -8 -37 -11 -27 -29 6 -12 9 -44 7
-73 -8 -98 -68 -145 -198 -154 -72 -6 -75 -7 -75 -31 0 -25 1 -25 110 -32 128
-7 152 -15 189 -59 26 -30 28 -39 24 -96 -3 -53 -9 -68 -33 -94 -45 -47 -99
-70 -183 -78 -182 -17 -286 32 -286 134 0 46 20 80 60 101 19 10 34 20 34 21
0 1 -9 17 -20 36 -24 40 -16 76 23 107 l22 18 -27 21 c-66 53 -74 173 -15 237
47 52 95 66 201 59 49 -3 122 -5 163 -5z m446 -1 c21 -5 54 -24 74 -42 51 -45
73 -98 73 -179 l0 -68 -163 0 -164 0 5 -30 c2 -17 18 -44 34 -60 27 -27 36
-30 98 -30 37 0 87 7 110 15 23 8 44 15 46 15 2 0 4 -24 4 -54 0 -52 -1 -55
-32 -66 -59 -21 -178 -24 -240 -6 -131 38 -193 169 -157 335 29 136 166 211
312 170z m-4246 -104 c19 -55 45 -136 58 -180 13 -44 24 -71 25 -60 0 11 24
92 53 180 l53 160 77 3 77 3 -23 -63 c-232 -618 -227 -607 -308 -648 -26 -14
-58 -20 -104 -20 l-65 0 0 55 0 55 44 0 c52 0 92 27 112 76 14 33 11 41 -86
284 -55 138 -100 253 -100 256 0 2 34 4 77 2 l76 -3 34 -100z m-717 -1180 c10
-9 20 -27 22 -39 5 -27 -11 -76 -24 -76 -6 0 1 -11 16 -25 18 -17 26 -34 26
-57 -1 -66 -39 -88 -154 -88 l-86 0 0 148 c0 82 3 152 8 156 14 15 172 -1 192
-19z m330 -5 l0 -30 -70 0 -70 0 0 -35 0 -35 65 0 c63 0 65 -1 65 -25 0 -24
-2 -25 -65 -25 l-65 0 0 -40 0 -40 70 0 c68 0 70 -1 70 -25 l0 -25 -100 0
-100 0 0 155 0 155 100 0 100 0 0 -30z m292 -9 c36 -40 36 -61 2 -61 -16 0
-34 10 -46 25 -22 28 -68 34 -88 10 -21 -26 -3 -43 69 -65 93 -28 123 -71 89
-133 -45 -86 -204 -65 -233 31 -5 19 -3 22 21 22 18 0 36 -9 49 -26 35 -44
121 -32 112 16 -3 18 -38 36 -94 50 -84 21 -108 86 -53 142 29 28 35 30 87 26
48 -4 61 -10 85 -37z m348 9 c0 -29 -2 -30 -45 -30 l-45 0 0 -125 0 -125 -30
0 -30 0 0 125 0 125 -45 0 c-43 0 -45 1 -45 30 l0 30 120 0 120 0 0 -30z m279
-7 c6 -21 20 -78 32 -128 25 -101 20 -107 59 68 l22 98 36 -3 37 -3 27 -115
c14 -63 27 -117 28 -120 1 -3 16 49 33 115 31 114 33 120 60 123 16 2 27 -1
27 -9 0 -6 -17 -76 -37 -156 l-38 -144 -44 3 -45 3 -18 85 c-31 145 -29 142
-43 80 -7 -30 -18 -81 -25 -112 l-11 -58 -44 0 -44 0 -15 53 c-8 28 -24 90
-36 137 -11 47 -23 93 -26 103 -4 13 1 17 25 17 27 0 31 -5 40 -37z m647 -120
l53 -153 -30 0 c-24 0 -32 6 -40 30 -10 29 -13 30 -69 30 -56 0 -59 -1 -69
-30 -8 -25 -15 -30 -42 -30 -26 0 -30 3 -24 18 4 9 25 69 47 132 22 63 45 125
49 138 7 19 15 23 40 20 31 -3 32 -5 85 -155z m205 89 l36 -64 39 66 c33 56
42 66 66 66 15 0 28 -5 28 -11 0 -6 -22 -48 -50 -94 -46 -75 -50 -88 -50 -144
l0 -61 -30 0 c-30 0 -30 0 -30 57 0 51 -6 66 -55 149 -30 51 -55 95 -55 99 0
3 14 5 32 3 28 -3 37 -12 69 -66z m624 38 c0 -23 -4 -25 -47 -28 l-48 -3 0
-125 0 -124 -30 0 -30 0 0 125 0 125 -45 0 c-43 0 -45 1 -45 30 l0 31 123 -3
122 -3 0 -25z m296 7 c66 -44 87 -132 50 -214 -24 -51 -68 -76 -134 -77 -113
0 -181 126 -125 234 40 78 138 105 209 57z m479 8 c31 -16 60 -51 60 -72 0
-21 -58 -16 -70 6 -20 38 -100 40 -100 2 0 -24 17 -37 60 -46 106 -23 149 -86
99 -148 -45 -59 -152 -57 -203 4 -14 17 -26 37 -26 45 0 24 49 16 73 -12 26
-30 80 -36 105 -10 26 26 5 46 -73 71 -76 25 -95 43 -95 91 0 68 96 107 170
69z m218 -52 l3 -63 59 0 59 0 3 63 c3 59 4 62 31 65 l27 3 0 -155 0 -156 -30
0 -30 0 0 65 0 65 -60 0 -60 0 0 -65 0 -65 -30 0 -30 0 0 156 0 155 28 -3 c26
-3 27 -6 30 -65z m503 44 c66 -44 87 -132 50 -214 -24 -51 -68 -76 -134 -77
-113 0 -181 126 -125 234 40 78 138 105 209 57z m334 8 c40 -16 59 -54 50
-101 -8 -48 -37 -67 -105 -72 l-60 -4 0 -59 c0 -59 0 -59 -30 -59 l-30 0 0
155 0 155 70 0 c39 0 86 -6 105 -15z"/>
<path d="M6923 10511 c-77 -37 -137 -96 -172 -170 -22 -47 -26 -70 -26 -141 0
-63 5 -94 18 -118 27 -50 47 -38 69 41 46 170 147 280 297 323 85 25 101 32
101 48 0 23 -75 46 -153 46 -59 0 -83 -5 -134 -29z"/>
<path d="M11543 10527 c-42 -16 -60 -34 -47 -47 6 -6 36 -17 67 -25 170 -44
283 -157 326 -325 15 -59 23 -75 37 -75 32 0 49 51 49 150 0 84 -2 95 -34 153
-36 67 -86 114 -161 153 -53 28 -183 37 -237 16z"/>
<path d="M11624 10267 c-10 -5 -48 -36 -84 -67 -529 -459 -1140 -759 -1735
-854 -241 -38 -540 -48 -766 -26 -643 64 -1285 352 -1867 837 -134 112 -157
121 -191 77 -42 -54 -34 -66 169 -228 579 -465 1166 -728 1815 -812 177 -23
563 -23 732 -1 552 76 1005 251 1503 582 237 158 505 376 516 420 12 48 -48
96 -92 72z"/>
<path d="M9278 5233 c-9 -10 -21 -28 -27 -40 -16 -32 -14 -149 5 -188 28 -60
107 -70 153 -21 43 46 40 198 -4 242 -30 30 -103 34 -127 7z"/>
<path d="M7127 5413 c-31 -8 -40 -50 -20 -91 10 -20 24 -38 31 -40 16 -5 82
61 82 82 0 9 -9 25 -20 36 -20 20 -36 23 -73 13z"/>
<path d="M7081 5106 c-30 -31 -31 -90 -3 -118 25 -26 98 -34 147 -18 l37 12
-73 74 c-40 41 -76 74 -80 74 -3 0 -16 -11 -28 -24z"/>
<path d="M4739 5241 c-17 -17 -29 -40 -29 -55 l0 -26 89 0 c50 0 92 4 95 9 11
18 -17 72 -45 86 -43 23 -77 18 -110 -14z"/>
<path d="M5293 5068 c-12 -6 -27 -24 -34 -40 -26 -63 32 -105 104 -74 42 17
57 41 57 90 l0 36 -52 -1 c-29 0 -63 -5 -75 -11z"/>
<path d="M8708 5064 c-49 -26 -49 -96 0 -115 37 -14 95 4 116 36 9 13 16 40
16 60 l0 35 -52 0 c-29 -1 -65 -7 -80 -16z"/>
<path d="M9836 5258 c-20 -28 -21 -97 -1 -125 18 -26 56 -36 88 -24 47 18 59
110 20 154 -24 26 -88 23 -107 -5z"/>
<path d="M9792 4824 c-31 -21 -30 -69 3 -90 37 -24 164 -16 202 12 36 27 41
57 11 78 -31 22 -184 23 -216 0z"/>
<path d="M10397 5249 c-15 -13 -30 -39 -33 -56 l-6 -33 97 0 98 0 -7 32 c-9
45 -35 68 -83 75 -32 4 -45 1 -66 -18z"/>
<path d="M5430 4005 c0 -35 0 -35 45 -35 49 0 71 21 54 52 -7 13 -22 18 -54
18 -45 0 -45 0 -45 -35z"/>
<path d="M5430 3880 l0 -40 41 0 c52 0 79 15 79 44 0 28 -16 36 -76 36 l-44 0
0 -40z"/>
<path d="M7362 3977 c-7 -24 -14 -52 -18 -61 -5 -13 1 -16 35 -16 23 0 41 1
41 3 0 10 -34 103 -40 110 -4 5 -12 -12 -18 -36z"/>
<path d="M8468 4034 c-51 -27 -57 -125 -12 -175 25 -28 85 -25 113 5 60 63 18
188 -62 186 -7 -1 -24 -7 -39 -16z"/>
<path d="M9668 4034 c-51 -27 -57 -125 -12 -175 25 -28 85 -25 113 5 60 63 18
188 -62 186 -7 -1 -24 -7 -39 -16z"/>
<path d="M10010 4000 c0 -39 1 -40 36 -40 44 0 74 15 74 38 0 29 -21 42 -67
42 l-43 0 0 -40z"/>
</g>
</svg>
